<svg width="31" height="25" viewBox="0 0 31 25" fill="none" xmlns="http://www.w3.org/2000/svg">
    <path d="M28.4582 19.6203C29.8905 18.1383 30.7499 16.2789 30.7499 14.25C30.7499 9.875 26.7655 6.26016 21.5728 5.61484C19.9321 2.46484 16.078 0.25 11.5832 0.25C5.59882 0.25 0.749863 4.16562 0.749863 9C0.749863 11.0234 1.60924 12.8828 3.04153 14.3703C2.24465 16.0492 1.09882 17.3508 1.07799 17.3727C0.749863 17.7391 0.656113 18.275 0.848821 18.7398C1.03632 19.2047 1.47382 19.5055 1.95299 19.5055C4.73944 19.5055 6.98944 18.4008 8.47382 17.3836C8.95299 17.4984 9.44778 17.5859 9.95298 17.6516C11.5884 20.7906 15.4269 23 19.9165 23C20.9999 23 22.0415 22.8688 23.0311 22.6281C24.5155 23.6398 26.7603 24.75 29.5519 24.75C30.0311 24.75 30.4634 24.4492 30.6561 23.9844C30.8436 23.5195 30.7551 22.9836 30.4269 22.6172C30.4061 22.6008 29.2551 21.2992 28.4582 19.6203ZM7.99986 14.5727L7.10924 15.1797C6.37486 15.6773 5.62486 16.0711 4.86444 16.35C5.00507 16.093 5.14569 15.8195 5.28111 15.5406L6.0884 13.8398L4.79674 12.5C4.09361 11.7672 3.24986 10.5695 3.24986 9C3.24986 5.68047 7.06757 2.875 11.5832 2.875C16.0988 2.875 19.9165 5.68047 19.9165 9C19.9165 12.3195 16.0988 15.125 11.5832 15.125C10.7238 15.125 9.86444 15.0211 9.03111 14.8187L7.99986 14.5727ZM26.703 17.75L25.4165 19.0844L26.2238 20.7852C26.3592 21.0641 26.4999 21.3375 26.6405 21.5945C25.8801 21.3156 25.1301 20.9219 24.3957 20.4242L23.5051 19.8172L22.4686 20.0688C21.6353 20.2711 20.7759 20.375 19.9165 20.375C17.104 20.375 14.5936 19.2758 13.078 17.657C18.354 17.0664 22.4165 13.4242 22.4165 9C22.4165 8.81406 22.3957 8.63359 22.3801 8.45312C25.7342 9.24609 28.2499 11.5594 28.2499 14.25C28.2499 15.8195 27.4061 17.0172 26.703 17.75Z" fill="white"/>
</svg>
