<svg width="23" height="24" viewBox="0 0 23 24" xmlns="http://www.w3.org/2000/svg"  fill="#321852">
    <path d="M15.4685 11.3145C14.2621 10.3072 12.6808 10.7555 11.8748 11.5676L11.4949 11.9525L11.115 11.5676C10.3295 10.7713 8.74308 10.2967 7.52121 11.3145C6.3096 12.3217 6.24799 14.1357 7.33125 15.2273L11.0585 18.9873C11.2998 19.2299 11.69 19.2299 11.9312 18.9873L15.6585 15.2273C16.7417 14.1357 16.6801 12.3217 15.4685 11.3145ZM22.9949 7.78125C22.9949 7.22227 22.8614 6.67383 22.6047 6.1834L20.0839 1.33711C19.8632 0.651562 19.2368 0.1875 18.5283 0.1875H4.47165C3.76317 0.1875 3.13683 0.651563 2.91094 1.34238L0.390179 6.18867C0.133482 6.6791 0 7.22754 0 7.78652C0.00513393 10.977 0 22.125 0 22.125C0 23.0584 0.734152 23.8125 1.64286 23.8125H21.3571C22.2658 23.8125 23 23.0584 23 22.125C23 22.125 22.9949 10.977 22.9949 7.78125ZM12.7321 2.71875H18.0098L19.7656 6.09375H12.7321V2.71875ZM4.99018 2.71875H10.2679V6.09375H3.23438L4.99018 2.71875ZM2.46429 21.2812C2.46429 19.3564 2.46942 12.6592 2.46942 8.625H20.5306C20.5306 12.6592 20.5357 19.3564 20.5357 21.2812H2.46429Z"/>
    </svg>
