<svg width="27" height="24" viewBox="0 0 27 24" fill="none" xmlns="http://www.w3.org/2000/svg">
<g clip-path="url(#clip0)">
<path d="M19.5844 14.7891L20.5219 13.8516C20.7 13.6734 21 13.8 21 14.0484V21.75C21 22.9922 19.9922 24 18.75 24H2.25C1.00781 24 0 22.9922 0 21.75V5.25C0 4.00781 1.00781 3 2.25 3H15.9516C16.2 3 16.3266 3.30469 16.1484 3.47812L15.2109 4.41562C15.1594 4.46719 15.0844 4.5 15.0141 4.5H2.25C1.8375 4.5 1.5 4.8375 1.5 5.25V21.75C1.5 22.1625 1.8375 22.5 2.25 22.5H18.75C19.1625 22.5 19.5 22.1625 19.5 21.75V14.9859C19.5 14.9109 19.5281 14.8406 19.5844 14.7891ZM26.4234 5.82656L11.775 20.475L7.09219 20.9953C6.46406 21.0656 5.93438 20.5359 6.00469 19.9078L6.525 15.225L21.1734 0.576562C21.9422 -0.192188 23.1891 -0.192188 23.9578 0.576562L26.4234 3.04219C27.1922 3.81094 27.1922 5.05781 26.4234 5.82656ZM22.0359 8.09531L18.9094 4.96875L7.95938 15.9141L7.57031 19.4344L11.0906 19.0453L22.0359 8.09531ZM25.3641 4.10156L22.8984 1.63594C22.7203 1.45781 22.4203 1.44844 22.2375 1.63594L19.9688 3.90469L23.0953 7.03125L25.3641 4.7625C25.5469 4.58437 25.5469 4.28438 25.3641 4.10156Z" fill="white"/>
</g>
<defs>
<clipPath id="clip0">
<rect width="27" height="24" fill="white"/>
</clipPath>
</defs>
</svg>
