<svg width="297" height="79" viewBox="0 0 297 79" fill="none" xmlns="http://www.w3.org/2000/svg">
    <path d="M123.578 40.2109H110.078V49.3516H125.922V55H103.047V20.875H125.875V26.5703H110.078V34.7031H123.578V40.2109ZM140.88 50.0078C142.13 50.0078 143.145 49.6641 143.927 48.9766C144.708 48.2891 145.114 47.375 145.145 46.2344H151.497C151.481 47.9531 151.013 49.5312 150.091 50.9688C149.169 52.3906 147.903 53.5 146.294 54.2969C144.7 55.0781 142.934 55.4688 140.997 55.4688C137.372 55.4688 134.513 54.3203 132.419 52.0234C130.325 49.7109 129.278 46.5234 129.278 42.4609V42.0156C129.278 38.1094 130.317 34.9922 132.395 32.6641C134.473 30.3359 137.325 29.1719 140.95 29.1719C144.122 29.1719 146.661 30.0781 148.567 31.8906C150.489 33.6875 151.466 36.0859 151.497 39.0859H145.145C145.114 37.7734 144.708 36.7109 143.927 35.8984C143.145 35.0703 142.114 34.6562 140.833 34.6562C139.255 34.6562 138.059 35.2344 137.247 36.3906C136.45 37.5312 136.052 39.3906 136.052 41.9688V42.6719C136.052 45.2812 136.45 47.1562 137.247 48.2969C138.044 49.4375 139.255 50.0078 140.88 50.0078ZM155.509 42.0859C155.509 39.5703 155.994 37.3281 156.963 35.3594C157.931 33.3906 159.322 31.8672 161.134 30.7891C162.963 29.7109 165.08 29.1719 167.486 29.1719C170.908 29.1719 173.697 30.2188 175.853 32.3125C178.025 34.4062 179.236 37.25 179.486 40.8438L179.533 42.5781C179.533 46.4688 178.447 49.5938 176.275 51.9531C174.103 54.2969 171.189 55.4688 167.533 55.4688C163.877 55.4688 160.955 54.2969 158.767 51.9531C156.595 49.6094 155.509 46.4219 155.509 42.3906V42.0859ZM162.283 42.5781C162.283 44.9844 162.736 46.8281 163.642 48.1094C164.548 49.375 165.845 50.0078 167.533 50.0078C169.173 50.0078 170.455 49.3828 171.377 48.1328C172.298 46.8672 172.759 44.8516 172.759 42.0859C172.759 39.7266 172.298 37.8984 171.377 36.6016C170.455 35.3047 169.158 34.6562 167.486 34.6562C165.83 34.6562 164.548 35.3047 163.642 36.6016C162.736 37.8828 162.283 39.875 162.283 42.5781ZM211.037 26.5703H200.584V55H193.553V26.5703H183.241V20.875H211.037V26.5703ZM225.386 55.4688C221.667 55.4688 218.636 54.3281 216.292 52.0469C213.964 49.7656 212.8 46.7266 212.8 42.9297V42.2734C212.8 39.7266 213.292 37.4531 214.277 35.4531C215.261 33.4375 216.652 31.8906 218.448 30.8125C220.261 29.7188 222.323 29.1719 224.636 29.1719C228.105 29.1719 230.831 30.2656 232.816 32.4531C234.816 34.6406 235.816 37.7422 235.816 41.7578V44.5234H219.667C219.886 46.1797 220.542 47.5078 221.636 48.5078C222.745 49.5078 224.144 50.0078 225.831 50.0078C228.441 50.0078 230.48 49.0625 231.948 47.1719L235.277 50.8984C234.261 52.3359 232.886 53.4609 231.152 54.2734C229.417 55.0703 227.495 55.4688 225.386 55.4688ZM224.613 34.6562C223.269 34.6562 222.175 35.1094 221.331 36.0156C220.503 36.9219 219.972 38.2188 219.738 39.9062H229.159V39.3672C229.128 37.8672 228.722 36.7109 227.941 35.8984C227.159 35.0703 226.05 34.6562 224.613 34.6562ZM251.43 50.0078C252.68 50.0078 253.695 49.6641 254.477 48.9766C255.258 48.2891 255.664 47.375 255.695 46.2344H262.047C262.031 47.9531 261.562 49.5312 260.641 50.9688C259.719 52.3906 258.453 53.5 256.844 54.2969C255.25 55.0781 253.484 55.4688 251.547 55.4688C247.922 55.4688 245.062 54.3203 242.969 52.0234C240.875 49.7109 239.828 46.5234 239.828 42.4609V42.0156C239.828 38.1094 240.867 34.9922 242.945 32.6641C245.023 30.3359 247.875 29.1719 251.5 29.1719C254.672 29.1719 257.211 30.0781 259.117 31.8906C261.039 33.6875 262.016 36.0859 262.047 39.0859H255.695C255.664 37.7734 255.258 36.7109 254.477 35.8984C253.695 35.0703 252.664 34.6562 251.383 34.6562C249.805 34.6562 248.609 35.2344 247.797 36.3906C247 37.5312 246.602 39.3906 246.602 41.9688V42.6719C246.602 45.2812 247 47.1562 247.797 48.2969C248.594 49.4375 249.805 50.0078 251.43 50.0078ZM273.723 32.4062C275.52 30.25 277.778 29.1719 280.497 29.1719C285.997 29.1719 288.786 32.3672 288.864 38.7578V55H282.091V38.9453C282.091 37.4922 281.778 36.4219 281.153 35.7344C280.528 35.0312 279.489 34.6797 278.036 34.6797C276.052 34.6797 274.614 35.4453 273.723 36.9766V55H266.95V19H273.723V32.4062Z" fill="#E7EB46"/>
    <g filter="url(#filter0_i)">
    <g clip-path="url(#clip0)">
    <rect width="79" height="79" rx="39.5" fill="white"/>
    <g clip-path="url(#clip1)" filter="url(#filter1_d)">
    <path d="M21.2692 19.5V58.5C21.2692 62.0852 23.9943 65 27.3461 65H51.6538C55.0056 65 57.7308 62.0852 57.7308 58.5V26L45.5769 13H27.3461C23.9943 13 21.2692 15.9148 21.2692 19.5ZM42.5385 39H36.4615V32.5H42.5385V39ZM51.6538 39H45.5769V32.5H48.6154C50.296 32.5 51.6538 33.9523 51.6538 35.75V39ZM45.5769 52H51.6538V55.25C51.6538 57.0477 50.296 58.5 48.6154 58.5H45.5769V52ZM36.4615 52H42.5385V58.5H36.4615V52ZM27.3461 52H33.4231V58.5H30.3846C28.704 58.5 27.3461 57.0477 27.3461 55.25V52ZM27.3461 42.25H51.6538V48.75H27.3461V42.25ZM27.3461 35.75C27.3461 33.9523 28.704 32.5 30.3846 32.5H33.4231V39H27.3461V35.75Z" fill="#321852"/>
    </g>
    </g>
    </g>
    <defs>
    <filter id="filter0_i" x="0" y="0" width="79" height="79" filterUnits="userSpaceOnUse" color-interpolation-filters="sRGB">
    <feFlood flood-opacity="0" result="BackgroundImageFix"/>
    <feBlend mode="normal" in="SourceGraphic" in2="BackgroundImageFix" result="shape"/>
    <feColorMatrix in="SourceAlpha" type="matrix" values="0 0 0 0 0 0 0 0 0 0 0 0 0 0 0 0 0 0 127 0" result="hardAlpha"/>
    <feOffset dx="-6"/>
    <feComposite in2="hardAlpha" operator="arithmetic" k2="-1" k3="1"/>
    <feColorMatrix type="matrix" values="0 0 0 0 0 0 0 0 0 0 0 0 0 0 0 0 0 0 0.25 0"/>
    <feBlend mode="normal" in2="shape" result="effect1_innerShadow"/>
    </filter>
    <filter id="filter1_d" x="21.2692" y="13" width="37.4615" height="53" filterUnits="userSpaceOnUse" color-interpolation-filters="sRGB">
    <feFlood flood-opacity="0" result="BackgroundImageFix"/>
    <feColorMatrix in="SourceAlpha" type="matrix" values="0 0 0 0 0 0 0 0 0 0 0 0 0 0 0 0 0 0 127 0"/>
    <feOffset dx="1" dy="1"/>
    <feColorMatrix type="matrix" values="0 0 0 0 0 0 0 0 0 0 0 0 0 0 0 0 0 0 0.25 0"/>
    <feBlend mode="normal" in2="BackgroundImageFix" result="effect1_dropShadow"/>
    <feBlend mode="normal" in="SourceGraphic" in2="effect1_dropShadow" result="shape"/>
    </filter>
    <clipPath id="clip0">
    <rect width="79" height="79" rx="39.5" fill="white"/>
    </clipPath>
    <clipPath id="clip1">
    <rect width="36.4615" height="52" fill="white" transform="translate(21.2692 13)"/>
    </clipPath>
    </defs>
    </svg>
