<svg width="294" height="83" viewBox="0 0 294 83" fill="none" xmlns="http://www.w3.org/2000/svg">
    <path d="M125.578 42.2109H112.078V51.3516H127.922V57H105.047V22.875H127.875V28.5703H112.078V36.7031H125.578V42.2109ZM142.88 52.0078C144.13 52.0078 145.145 51.6641 145.927 50.9766C146.708 50.2891 147.114 49.375 147.145 48.2344H153.497C153.481 49.9531 153.013 51.5312 152.091 52.9688C151.169 54.3906 149.903 55.5 148.294 56.2969C146.7 57.0781 144.934 57.4688 142.997 57.4688C139.372 57.4688 136.513 56.3203 134.419 54.0234C132.325 51.7109 131.278 48.5234 131.278 44.4609V44.0156C131.278 40.1094 132.317 36.9922 134.395 34.6641C136.473 32.3359 139.325 31.1719 142.95 31.1719C146.122 31.1719 148.661 32.0781 150.567 33.8906C152.489 35.6875 153.466 38.0859 153.497 41.0859H147.145C147.114 39.7734 146.708 38.7109 145.927 37.8984C145.145 37.0703 144.114 36.6562 142.833 36.6562C141.255 36.6562 140.059 37.2344 139.247 38.3906C138.45 39.5312 138.052 41.3906 138.052 43.9688V44.6719C138.052 47.2812 138.45 49.1562 139.247 50.2969C140.044 51.4375 141.255 52.0078 142.88 52.0078ZM157.509 44.0859C157.509 41.5703 157.994 39.3281 158.963 37.3594C159.931 35.3906 161.322 33.8672 163.134 32.7891C164.963 31.7109 167.08 31.1719 169.486 31.1719C172.908 31.1719 175.697 32.2188 177.853 34.3125C180.025 36.4062 181.236 39.25 181.486 42.8438L181.533 44.5781C181.533 48.4688 180.447 51.5938 178.275 53.9531C176.103 56.2969 173.189 57.4688 169.533 57.4688C165.877 57.4688 162.955 56.2969 160.767 53.9531C158.595 51.6094 157.509 48.4219 157.509 44.3906V44.0859ZM164.283 44.5781C164.283 46.9844 164.736 48.8281 165.642 50.1094C166.548 51.375 167.845 52.0078 169.533 52.0078C171.173 52.0078 172.455 51.3828 173.377 50.1328C174.298 48.8672 174.759 46.8516 174.759 44.0859C174.759 41.7266 174.298 39.8984 173.377 38.6016C172.455 37.3047 171.158 36.6562 169.486 36.6562C167.83 36.6562 166.548 37.3047 165.642 38.6016C164.736 39.8828 164.283 41.875 164.283 44.5781ZM213.037 28.5703H202.584V57H195.553V28.5703H185.241V22.875H213.037V28.5703ZM227.386 57.4688C223.667 57.4688 220.636 56.3281 218.292 54.0469C215.964 51.7656 214.8 48.7266 214.8 44.9297V44.2734C214.8 41.7266 215.292 39.4531 216.277 37.4531C217.261 35.4375 218.652 33.8906 220.448 32.8125C222.261 31.7188 224.323 31.1719 226.636 31.1719C230.105 31.1719 232.831 32.2656 234.816 34.4531C236.816 36.6406 237.816 39.7422 237.816 43.7578V46.5234H221.667C221.886 48.1797 222.542 49.5078 223.636 50.5078C224.745 51.5078 226.144 52.0078 227.831 52.0078C230.441 52.0078 232.48 51.0625 233.948 49.1719L237.277 52.8984C236.261 54.3359 234.886 55.4609 233.152 56.2734C231.417 57.0703 229.495 57.4688 227.386 57.4688ZM226.613 36.6562C225.269 36.6562 224.175 37.1094 223.331 38.0156C222.503 38.9219 221.972 40.2188 221.738 41.9062H231.159V41.3672C231.128 39.8672 230.722 38.7109 229.941 37.8984C229.159 37.0703 228.05 36.6562 226.613 36.6562ZM253.43 52.0078C254.68 52.0078 255.695 51.6641 256.477 50.9766C257.258 50.2891 257.664 49.375 257.695 48.2344H264.047C264.031 49.9531 263.562 51.5312 262.641 52.9688C261.719 54.3906 260.453 55.5 258.844 56.2969C257.25 57.0781 255.484 57.4688 253.547 57.4688C249.922 57.4688 247.062 56.3203 244.969 54.0234C242.875 51.7109 241.828 48.5234 241.828 44.4609V44.0156C241.828 40.1094 242.867 36.9922 244.945 34.6641C247.023 32.3359 249.875 31.1719 253.5 31.1719C256.672 31.1719 259.211 32.0781 261.117 33.8906C263.039 35.6875 264.016 38.0859 264.047 41.0859H257.695C257.664 39.7734 257.258 38.7109 256.477 37.8984C255.695 37.0703 254.664 36.6562 253.383 36.6562C251.805 36.6562 250.609 37.2344 249.797 38.3906C249 39.5312 248.602 41.3906 248.602 43.9688V44.6719C248.602 47.2812 249 49.1562 249.797 50.2969C250.594 51.4375 251.805 52.0078 253.43 52.0078ZM275.723 34.4062C277.52 32.25 279.778 31.1719 282.497 31.1719C287.997 31.1719 290.786 34.3672 290.864 40.7578V57H284.091V40.9453C284.091 39.4922 283.778 38.4219 283.153 37.7344C282.528 37.0312 281.489 36.6797 280.036 36.6797C278.052 36.6797 276.614 37.4453 275.723 38.9766V57H268.95V21H275.723V34.4062Z" fill="#321852"/>
    <g filter="url(#filter0_i)">
    <rect x="2" y="2" width="79" height="79" rx="39.5" fill="white"/>
    <g clip-path="url(#clip0)" filter="url(#filter1_d)">
    <path d="M23.2693 21.5V60.5C23.2693 64.0852 25.9944 67 29.3462 67H53.6539C57.0057 67 59.7308 64.0852 59.7308 60.5V28L47.577 15H29.3462C25.9944 15 23.2693 17.9148 23.2693 21.5ZM44.5385 41H38.4616V34.5H44.5385V41ZM53.6539 41H47.577V34.5H50.6154C52.2961 34.5 53.6539 35.9523 53.6539 37.75V41ZM47.577 54H53.6539V57.25C53.6539 59.0477 52.2961 60.5 50.6154 60.5H47.577V54ZM38.4616 54H44.5385V60.5H38.4616V54ZM29.3462 54H35.4231V60.5H32.3847C30.704 60.5 29.3462 59.0477 29.3462 57.25V54ZM29.3462 44.25H53.6539V50.75H29.3462V44.25ZM29.3462 37.75C29.3462 35.9523 30.704 34.5 32.3847 34.5H35.4231V41H29.3462V37.75Z" fill="#321852"/>
    </g>
    <rect x="1" y="1" width="81" height="81" rx="40.5" stroke="#321852" stroke-width="2"/>
    </g>
    <defs>
    <filter id="filter0_i" x="-1" y="0" width="84" height="83" filterUnits="userSpaceOnUse" color-interpolation-filters="sRGB">
    <feFlood flood-opacity="0" result="BackgroundImageFix"/>
    <feBlend mode="normal" in="SourceGraphic" in2="BackgroundImageFix" result="shape"/>
    <feColorMatrix in="SourceAlpha" type="matrix" values="0 0 0 0 0 0 0 0 0 0 0 0 0 0 0 0 0 0 127 0" result="hardAlpha"/>
    <feMorphology radius="1" operator="erode" in="SourceAlpha" result="effect1_innerShadow"/>
    <feOffset dx="-6"/>
    <feComposite in2="hardAlpha" operator="arithmetic" k2="-1" k3="1"/>
    <feColorMatrix type="matrix" values="0 0 0 0 0 0 0 0 0 0 0 0 0 0 0 0 0 0 0.25 0"/>
    <feBlend mode="normal" in2="shape" result="effect1_innerShadow"/>
    </filter>
    <filter id="filter1_d" x="23.2693" y="15" width="37.4615" height="53" filterUnits="userSpaceOnUse" color-interpolation-filters="sRGB">
    <feFlood flood-opacity="0" result="BackgroundImageFix"/>
    <feColorMatrix in="SourceAlpha" type="matrix" values="0 0 0 0 0 0 0 0 0 0 0 0 0 0 0 0 0 0 127 0"/>
    <feOffset dx="1" dy="1"/>
    <feColorMatrix type="matrix" values="0 0 0 0 0 0 0 0 0 0 0 0 0 0 0 0 0 0 0.25 0"/>
    <feBlend mode="normal" in2="BackgroundImageFix" result="effect1_dropShadow"/>
    <feBlend mode="normal" in="SourceGraphic" in2="effect1_dropShadow" result="shape"/>
    </filter>
    <clipPath id="clip0">
    <rect width="36.4615" height="52" fill="white" transform="translate(23.2693 15)"/>
    </clipPath>
    </defs>
    </svg>
