<svg width="24" height="25" viewBox="0 0 24 25" xmlns="http://www.w3.org/2000/svg" fill="#321852">
    <path d="M23.8828 9.15313L21.5109 2.0375C21.2062 1.11875 20.3484 0.5 19.3781 0.5H4.62187C3.65156 0.5 2.79375 1.11875 2.48906 2.0375L0.117188 9.15313C0.0421875 9.38281 0 9.62187 0 9.86563V22.25C0 23.4922 1.00781 24.5 2.25 24.5H21.75C22.9922 24.5 24 23.4922 24 22.25V9.86563C24 9.62187 23.9625 9.38281 23.8828 9.15313ZM21.6281 9.5H13.125V2.75H19.3781L21.6281 9.5ZM4.62187 2.75H10.875V9.5H2.37187L4.62187 2.75ZM2.25 22.25V11.75H21.75V22.25H2.25Z"/>
    </svg>
