<svg width="21" height="24" viewBox="0 0 21 24" fill="none" xmlns="http://www.w3.org/2000/svg">
<g clip-path="url(#clip0)">
<path d="M7.125 20.25H6.375C6.27554 20.25 6.18016 20.2105 6.10983 20.1402C6.03951 20.0698 6 19.9745 6 19.875V7.125C6 7.02554 6.03951 6.93016 6.10983 6.85983C6.18016 6.78951 6.27554 6.75 6.375 6.75H7.125C7.22446 6.75 7.31984 6.78951 7.39017 6.85983C7.46049 6.93016 7.5 7.02554 7.5 7.125V19.875C7.5 19.9745 7.46049 20.0698 7.39017 20.1402C7.31984 20.2105 7.22446 20.25 7.125 20.25ZM14.625 20.25H13.875C13.7755 20.25 13.6802 20.2105 13.6098 20.1402C13.5395 20.0698 13.5 19.9745 13.5 19.875V7.125C13.5 7.02554 13.5395 6.93016 13.6098 6.85983C13.6802 6.78951 13.7755 6.75 13.875 6.75H14.625C14.7245 6.75 14.8198 6.78951 14.8902 6.85983C14.9605 6.93016 15 7.02554 15 7.125V19.875C15 19.9745 14.9605 20.0698 14.8902 20.1402C14.8198 20.2105 14.7245 20.25 14.625 20.25ZM0.375 3H5.25L6.825 0.9C7.03458 0.620559 7.30634 0.393751 7.61877 0.237539C7.93119 0.0813265 8.2757 0 8.625 0L12.375 0C12.7243 0 13.0688 0.0813265 13.3812 0.237539C13.6937 0.393751 13.9654 0.620559 14.175 0.9L15.75 3H20.625C20.7245 3 20.8198 3.03951 20.8902 3.10984C20.9605 3.18016 21 3.27554 21 3.375V4.125C21 4.22446 20.9605 4.31984 20.8902 4.39016C20.8198 4.46049 20.7245 4.5 20.625 4.5H19.5V21.75C19.5 22.3467 19.2629 22.919 18.841 23.341C18.419 23.7629 17.8467 24 17.25 24H3.75C3.15326 24 2.58097 23.7629 2.15901 23.341C1.73705 22.919 1.5 22.3467 1.5 21.75V4.5H0.375C0.275543 4.5 0.180161 4.46049 0.109835 4.39016C0.0395088 4.31984 0 4.22446 0 4.125V3.375C0 3.27554 0.0395088 3.18016 0.109835 3.10984C0.180161 3.03951 0.275543 3 0.375 3ZM12.975 1.8C12.9049 1.70712 12.8142 1.63171 12.7102 1.57967C12.6061 1.52763 12.4914 1.50036 12.375 1.5H8.625C8.50863 1.50036 8.39392 1.52763 8.28983 1.57967C8.18575 1.63171 8.09511 1.70712 8.025 1.8L7.125 3H13.875L12.975 1.8ZM3 21.75C3 21.9489 3.07902 22.1397 3.21967 22.2803C3.36032 22.421 3.55109 22.5 3.75 22.5H17.25C17.4489 22.5 17.6397 22.421 17.7803 22.2803C17.921 22.1397 18 21.9489 18 21.75V4.5H3V21.75ZM10.875 20.25H10.125C10.0255 20.25 9.93016 20.2105 9.85983 20.1402C9.78951 20.0698 9.75 19.9745 9.75 19.875V7.125C9.75 7.02554 9.78951 6.93016 9.85983 6.85983C9.93016 6.78951 10.0255 6.75 10.125 6.75H10.875C10.9745 6.75 11.0698 6.78951 11.1402 6.85983C11.2105 6.93016 11.25 7.02554 11.25 7.125V19.875C11.25 19.9745 11.2105 20.0698 11.1402 20.1402C11.0698 20.2105 10.9745 20.25 10.875 20.25Z" fill="#FFC8C8"/>
</g>
<defs>
<clipPath id="clip0">
<rect width="21" height="24" fill="white" transform="matrix(-1 0 0 1 21 0)"/>
</clipPath>
</defs>
</svg>
