<svg width="28" height="30" viewBox="0 0 28 30" fill="none" xmlns="http://www.w3.org/2000/svg">
    <g clip-path="url(#clip0)">
    <path d="M19.3304 17.8125C17.5614 17.8125 16.7107 18.75 13.8075 18.75C10.9042 18.75 10.0597 17.8125 8.28447 17.8125C3.71075 17.8125 0 21.3398 0 25.6875V27.1875C0 28.7402 1.32527 30 2.95874 30H24.6562C26.2896 30 27.6149 28.7402 27.6149 27.1875V25.6875C27.6149 21.3398 23.9042 17.8125 19.3304 17.8125ZM24.6562 27.1875H2.95874V25.6875C2.95874 22.8984 5.35039 20.625 8.28447 20.625C9.18442 20.625 10.6453 21.5625 13.8075 21.5625C16.9943 21.5625 18.4243 20.625 19.3304 20.625C22.2645 20.625 24.6562 22.8984 24.6562 25.6875V27.1875ZM13.8075 16.875C18.7079 16.875 22.6837 13.0957 22.6837 8.4375C22.6837 3.7793 18.7079 0 13.8075 0C8.90704 0 4.93123 3.7793 4.93123 8.4375C4.93123 13.0957 8.90704 16.875 13.8075 16.875ZM13.8075 2.8125C17.0682 2.8125 19.7249 5.33789 19.7249 8.4375C19.7249 11.5371 17.0682 14.0625 13.8075 14.0625C10.5467 14.0625 7.88997 11.5371 7.88997 8.4375C7.88997 5.33789 10.5467 2.8125 13.8075 2.8125Z" fill="#321852"/>
    </g>
    <defs>
    <clipPath id="clip0">
    <rect width="27.6149" height="30" fill="white"/>
    </clipPath>
    </defs>
    </svg>
