<svg width="51" height="51" viewBox="0 0 51 51" fill="none" xmlns="http://www.w3.org/2000/svg">
    <path d="M25.5 3.98438C37.3158 3.98438 47.0156 13.5543 47.0156 25.5C47.0156 37.3825 37.3924 47.0156 25.5 47.0156C13.6222 47.0156 3.98438 37.3971 3.98438 25.5C3.98438 13.6263 13.6068 3.98438 25.5 3.98438ZM25.5 0.796875C11.8578 0.796875 0.796875 11.8618 0.796875 25.5C0.796875 39.1462 11.8578 50.2031 25.5 50.2031C39.1422 50.2031 50.2031 39.1462 50.2031 25.5C50.2031 11.8618 39.1422 0.796875 25.5 0.796875ZM24.3555 12.75H26.6444C27.324 12.75 27.867 13.316 27.8387 13.9951L27.1415 30.7295C27.1148 31.3698 26.588 31.875 25.9471 31.875H25.0528C24.412 31.875 23.8851 31.3697 23.8584 30.7295L23.1612 13.9951C23.133 13.316 23.6759 12.75 24.3555 12.75ZM25.5 33.8672C23.9596 33.8672 22.7109 35.1159 22.7109 36.6562C22.7109 38.1966 23.9596 39.4453 25.5 39.4453C27.0404 39.4453 28.2891 38.1966 28.2891 36.6562C28.2891 35.1159 27.0404 33.8672 25.5 33.8672Z" fill="#877185"/>
    </svg>
