<svg width="29" height="31" viewBox="0 0 29 31" fill="#221160" xmlns="http://www.w3.org/2000/svg">
<g clip-path="url(#clip0)">
<path d="M27.6213 7.86752L22.3787 2.78873C21.8161 2.2437 21.053 1.9375 20.2574 1.9375H3.5C1.84312 1.9375 0.5 3.23865 0.5 4.84375V26.1562C0.5 27.7613 1.84312 29.0625 3.5 29.0625H25.5C27.1569 29.0625 28.5 27.7613 28.5 26.1562V9.92254C28.5 9.15176 28.1839 8.41255 27.6213 7.86752ZM18.5 3.875V9.6875H6.5V3.875H18.5ZM26.5 26.1562C26.5 26.6904 26.0514 27.125 25.5 27.125H3.5C2.94863 27.125 2.5 26.6904 2.5 26.1562V4.84375C2.5 4.30961 2.94863 3.875 3.5 3.875H4.5V10.1719C4.5 10.9744 5.17156 11.625 6 11.625H19C19.8284 11.625 20.5 10.9744 20.5 10.1719V3.90473C20.6758 3.94677 20.8365 4.0346 20.9645 4.15872L26.2071 9.23752C26.3003 9.32727 26.3741 9.43402 26.4244 9.55161C26.4747 9.66919 26.5004 9.79527 26.5 9.92254V26.1562ZM14.5 14.0469C11.4673 14.0469 9 16.4371 9 19.375C9 22.3129 11.4673 24.7031 14.5 24.7031C17.5327 24.7031 20 22.3129 20 19.375C20 16.4371 17.5327 14.0469 14.5 14.0469ZM14.5 22.7656C12.5701 22.7656 11 21.2446 11 19.375C11 17.5054 12.5701 15.9844 14.5 15.9844C16.4299 15.9844 18 17.5054 18 19.375C18 21.2446 16.4299 22.7656 14.5 22.7656Z"/>
</g>
<defs>
<clipPath id="clip0">
<rect width="28" height="31" fill="white" transform="translate(0.5)"/>
</clipPath>
</defs>
</svg>
