<svg width="33" height="25" viewBox="0 0 33 25" fill="none" xmlns="http://www.w3.org/2000/svg">
    <path d="M29.9062 0.125H3.09375C1.3851 0.125 0 1.5101 0 3.21875V21.7812C0 23.4899 1.3851 24.875 3.09375 24.875H29.9062C31.6149 24.875 33 23.4899 33 21.7812V3.21875C33 1.5101 31.6149 0.125 29.9062 0.125ZM29.9062 3.21875V5.84876C28.4611 7.02561 26.1571 8.85556 21.2317 12.7124C20.1462 13.5662 17.9961 15.6174 16.5 15.5935C15.0042 15.6177 12.8533 13.5659 11.7683 12.7124C6.84363 8.85614 4.53911 7.0258 3.09375 5.84876V3.21875H29.9062ZM3.09375 21.7812V9.81862C4.57063 10.995 6.66503 12.6457 9.85733 15.1454C11.2661 16.2543 13.7332 18.7023 16.5 18.6874C19.2532 18.7023 21.6891 16.2898 23.1421 15.1459C26.3343 12.6462 28.4293 10.9951 29.9062 9.81869V21.7812H3.09375Z" fill="#696969"/>
    </svg>
