<svg width="76" height="60" viewBox="0 0 76 60" fill="none" xmlns="http://www.w3.org/2000/svg">
<path d="M60.5157 22.3696L59.5548 24.0454C59.2032 24.6665 58.4532 24.9243 57.7853 24.6782C56.4025 24.1626 55.1368 23.4243 54.0236 22.4986C53.4845 22.0532 53.3439 21.2681 53.6954 20.6587L54.6564 18.9829C53.8478 18.0454 53.215 16.9556 52.7931 15.772H50.8595C50.1564 15.772 49.547 15.2681 49.4298 14.565C49.1954 13.1587 49.1837 11.6821 49.4298 10.2173C49.547 9.51418 50.1564 8.99855 50.8595 8.99855H52.7931C53.215 7.81496 53.8478 6.72511 54.6564 5.78761L53.6954 4.11183C53.3439 3.50246 53.4728 2.7173 54.0236 2.27199C55.1368 1.34621 56.4142 0.607924 57.7853 0.0922989C58.4532 -0.153795 59.2032 0.104018 59.5548 0.725111L60.5157 2.40089C61.7462 2.17824 63.0001 2.17824 64.2306 2.40089L65.1915 0.725111C65.5431 0.104018 66.2931 -0.153795 66.9611 0.0922989C68.3439 0.607924 69.6095 1.34621 70.7228 2.27199C71.2618 2.7173 71.4025 3.50246 71.0509 4.11183L70.09 5.78761C70.8986 6.72511 71.5314 7.81496 71.9532 8.99855H73.8868C74.59 8.99855 75.1993 9.50246 75.3165 10.2056C75.5509 11.6118 75.5626 13.0884 75.3165 14.5532C75.1993 15.2564 74.59 15.772 73.8868 15.772H71.9532C71.5314 16.9556 70.8986 18.0454 70.09 18.9829L71.0509 20.6587C71.4025 21.2681 71.2736 22.0532 70.7228 22.4986C69.6095 23.4243 68.3321 24.1626 66.9611 24.6782C66.2931 24.9243 65.5431 24.6665 65.1915 24.0454L64.2306 22.3696C63.0118 22.5923 61.7462 22.5923 60.5157 22.3696ZM59.2853 15.479C63.797 18.9478 68.9415 13.8032 65.4728 9.29152C60.9611 5.81105 55.8165 10.9673 59.2853 15.479ZM45.7736 33.5142L49.7228 35.4829C50.9064 36.1626 51.422 37.604 50.9532 38.8931C49.9103 41.729 47.8595 44.3306 45.9611 46.604C45.0939 47.647 43.5939 47.9048 42.4103 47.2251L39.0001 45.2564C37.1251 46.8618 34.9454 48.1392 32.5665 48.9712V52.9087C32.5665 54.2681 31.5939 55.44 30.2579 55.6743C27.3751 56.1665 24.3517 56.19 21.3634 55.6743C20.0157 55.44 19.0197 54.2798 19.0197 52.9087V48.9712C16.6407 48.1275 14.4611 46.8618 12.5861 45.2564L9.1759 47.2134C8.00403 47.8931 6.49231 47.6353 5.62512 46.5923C3.72669 44.3189 1.72278 41.7173 0.679811 38.8931C0.211061 37.6157 0.726686 36.1743 1.91028 35.4829L5.81262 33.5142C5.35559 31.065 5.35559 28.5454 5.81262 26.0845L1.91028 24.104C0.726686 23.4243 0.199343 21.9829 0.679811 20.7056C1.72278 17.8696 3.72669 15.2681 5.62512 12.9946C6.49231 11.9517 7.99231 11.6939 9.1759 12.3735L12.5861 14.3423C14.4611 12.7368 16.6407 11.4595 19.0197 10.6275V6.67824C19.0197 5.33058 19.9806 4.15871 21.3165 3.92433C24.1993 3.43214 27.2345 3.40871 30.2228 3.91261C31.5704 4.14699 32.5665 5.30714 32.5665 6.67824V10.6157C34.9454 11.4595 37.1251 12.7251 39.0001 14.3306L42.4103 12.3618C43.5822 11.6821 45.0939 11.94 45.9611 12.9829C47.8595 15.2564 49.8517 17.8579 50.8946 20.6939C51.3634 21.9712 50.9064 23.4126 49.7228 24.104L45.7736 26.0728C46.2306 28.5337 46.2306 31.0532 45.7736 33.5142ZM31.9923 35.9868C38.9298 26.9634 28.629 16.6626 19.6056 23.6001C12.6681 32.6236 22.9689 42.9243 31.9923 35.9868ZM60.5157 57.397L59.5548 59.0728C59.2032 59.6939 58.4532 59.9517 57.7853 59.7056C56.4025 59.19 55.1368 58.4517 54.0236 57.5259C53.4845 57.0806 53.3439 56.2954 53.6954 55.6861L54.6564 54.0103C53.8478 53.0728 53.215 51.9829 52.7931 50.7993H50.8595C50.1564 50.7993 49.547 50.2954 49.4298 49.5923C49.1954 48.1861 49.1837 46.7095 49.4298 45.2446C49.547 44.5415 50.1564 44.0259 50.8595 44.0259H52.7931C53.215 42.8423 53.8478 41.7525 54.6564 40.815L53.6954 39.1392C53.3439 38.5298 53.4728 37.7446 54.0236 37.2993C55.1368 36.3736 56.4142 35.6353 57.7853 35.1196C58.4532 34.8735 59.2032 35.1314 59.5548 35.7525L60.5157 37.4282C61.7462 37.2056 63.0001 37.2056 64.2306 37.4282L65.1915 35.7525C65.5431 35.1314 66.2931 34.8735 66.9611 35.1196C68.3439 35.6353 69.6095 36.3736 70.7228 37.2993C71.2618 37.7446 71.4025 38.5298 71.0509 39.1392L70.09 40.815C70.8986 41.7525 71.5314 42.8423 71.9532 44.0259H73.8868C74.59 44.0259 75.1993 44.5298 75.3165 45.2329C75.5509 46.6392 75.5626 48.1157 75.3165 49.5806C75.1993 50.2837 74.59 50.7993 73.8868 50.7993H71.9532C71.5314 51.9829 70.8986 53.0728 70.09 54.0103L71.0509 55.6861C71.4025 56.2954 71.2736 57.0806 70.7228 57.5259C69.6095 58.4517 68.3321 59.19 66.9611 59.7056C66.2931 59.9517 65.5431 59.6939 65.1915 59.0728L64.2306 57.397C63.0118 57.6196 61.7462 57.6196 60.5157 57.397ZM59.2853 50.4946C63.797 53.9634 68.9415 48.8189 65.4728 44.3071C60.9611 40.8384 55.8165 45.9829 59.2853 50.4946Z" fill="#6755A8"/>
</svg>
