<svg width="548" height="315" viewBox="0 0 548 315" fill="none" xmlns="http://www.w3.org/2000/svg">
    <g clip-path="url(#clip0)">
    <path d="M118.736 279.611C134.476 279.611 147.236 266.846 147.236 251.1C147.236 235.354 134.476 222.589 118.736 222.589C102.997 222.589 90.2373 235.354 90.2373 251.1C90.2373 266.846 102.997 279.611 118.736 279.611Z" fill="#F2F2F2"/>
    <path d="M123.37 275.439C139.11 275.439 151.87 262.674 151.87 246.928C151.87 231.182 139.11 218.417 123.37 218.417C107.631 218.417 94.8713 231.182 94.8713 246.928C94.8713 262.674 107.631 275.439 123.37 275.439Z" fill="#E7EB46"/>
    <path d="M498.933 215.381H146.322V216.343H498.933V215.381Z" fill="#3F3D56"/>
    <path d="M328.94 8.97638H203.785V6.39575H147.034V8.97638H21.3636C20.2518 8.97638 19.151 9.19544 18.1238 9.62106C17.0967 10.0467 16.1635 10.6705 15.3773 11.457C14.5912 12.2434 13.9676 13.1771 13.5422 14.2046C13.1167 15.2322 12.8978 16.3335 12.8978 17.4457V188.893C12.8978 191.139 13.7897 193.293 15.3773 194.881C16.965 196.47 19.1183 197.362 21.3636 197.362H328.94C331.185 197.362 333.338 196.47 334.926 194.881C336.514 193.293 337.405 191.139 337.405 188.893V17.4457C337.405 16.3335 337.186 15.2322 336.761 14.2046C336.336 13.1771 335.712 12.2434 334.926 11.457C334.14 10.6705 333.207 10.0467 332.179 9.62106C331.152 9.19544 330.051 8.97638 328.94 8.97638Z" fill="#3F3D56"/>
    <path d="M326.055 23.944H24.2478V194.265H326.055V23.944Z" fill="#E7EB46"/>
    <path d="M174.894 19.2989C176.603 19.2989 177.989 17.9124 177.989 16.2022C177.989 14.4919 176.603 13.1054 174.894 13.1054C173.184 13.1054 171.798 14.4919 171.798 16.2022C171.798 17.9124 173.184 19.2989 174.894 19.2989Z" fill="#E7EB46"/>
    <path opacity="0.1" d="M239.744 194.265H24.2479V23.9442L239.744 194.265Z" fill="black"/>
    <path d="M71.4716 181.52C87.4938 181.52 100.482 168.526 100.482 152.497C100.482 136.468 87.4938 123.475 71.4716 123.475C55.4495 123.475 42.461 136.468 42.461 152.497C42.461 168.526 55.4495 181.52 71.4716 181.52Z" fill="#F2F2F2"/>
    <path d="M273.506 115.8H245.314V121.693H273.506V115.8Z" fill="#3F3D56"/>
    <path d="M307.589 69.9157H211.231V72.4415H307.589V69.9157Z" fill="#3F3D56"/>
    <path d="M307.589 77.9138H211.231V80.4396H307.589V77.9138Z" fill="#3F3D56"/>
    <path d="M307.589 85.912H211.231V88.4377H307.589V85.912Z" fill="#3F3D56"/>
    <path d="M307.589 93.9101H211.231V96.4358H307.589V93.9101Z" fill="#3F3D56"/>
    <path d="M307.589 101.908H211.231V104.434H307.589V101.908Z" fill="#3F3D56"/>
    <path d="M307.589 27.3995H295.807V39.1862H307.589V27.3995Z" fill="#F2F2F2"/>
    <path d="M313.059 44.6586H298.752V30.3461H313.059V44.6586ZM299.374 44.0363H312.437V30.9684H299.374V44.0363Z" fill="#3F3D56"/>
    <path d="M345.88 191.169H316.425V189.045C316.425 188.99 316.414 188.935 316.393 188.884C316.372 188.833 316.341 188.787 316.302 188.748C316.263 188.709 316.216 188.678 316.165 188.657C316.114 188.635 316.06 188.624 316.004 188.624H305.906C305.85 188.624 305.796 188.635 305.745 188.657C305.694 188.678 305.647 188.709 305.608 188.748C305.569 188.787 305.538 188.833 305.517 188.884C305.496 188.935 305.485 188.99 305.485 189.045V191.169H299.173V189.045C299.173 188.99 299.162 188.935 299.141 188.884C299.12 188.833 299.089 188.787 299.05 188.748C299.011 188.709 298.964 188.678 298.913 188.657C298.862 188.635 298.808 188.624 298.752 188.624H288.654C288.598 188.624 288.544 188.635 288.493 188.657C288.442 188.678 288.395 188.709 288.356 188.748C288.317 188.787 288.286 188.833 288.265 188.884C288.244 188.935 288.233 188.99 288.233 189.045V191.169H281.921V189.045C281.921 188.99 281.91 188.935 281.889 188.884C281.868 188.833 281.837 188.787 281.798 188.748C281.759 188.709 281.713 188.678 281.662 188.657C281.61 188.635 281.556 188.624 281.5 188.624H271.402C271.347 188.624 271.292 188.635 271.241 188.657C271.19 188.678 271.143 188.709 271.104 188.748C271.065 188.787 271.034 188.833 271.013 188.884C270.992 188.935 270.981 188.99 270.981 189.045V191.169H264.669V189.045C264.669 188.99 264.659 188.935 264.637 188.884C264.616 188.833 264.585 188.787 264.546 188.748C264.507 188.709 264.461 188.678 264.41 188.657C264.359 188.635 264.304 188.624 264.249 188.624H254.15C254.095 188.624 254.04 188.635 253.989 188.657C253.938 188.678 253.891 188.709 253.852 188.748C253.813 188.787 253.782 188.833 253.761 188.884C253.74 188.935 253.729 188.99 253.729 189.045V191.169H247.417V189.045C247.417 188.99 247.407 188.935 247.385 188.884C247.364 188.833 247.333 188.787 247.294 188.748C247.255 188.709 247.209 188.678 247.158 188.657C247.107 188.635 247.052 188.624 246.997 188.624H236.898C236.843 188.624 236.788 188.635 236.737 188.657C236.686 188.678 236.64 188.709 236.601 188.748C236.561 188.787 236.53 188.833 236.509 188.884C236.488 188.935 236.477 188.99 236.477 189.045V191.169H230.166V189.045C230.166 188.99 230.155 188.935 230.134 188.884C230.112 188.833 230.081 188.787 230.042 188.748C230.003 188.709 229.957 188.678 229.906 188.657C229.855 188.635 229.8 188.624 229.745 188.624H219.646C219.591 188.624 219.536 188.635 219.485 188.657C219.434 188.678 219.388 188.709 219.349 188.748C219.31 188.787 219.279 188.833 219.257 188.884C219.236 188.935 219.225 188.99 219.225 189.045V191.169H212.914V189.045C212.914 188.99 212.903 188.935 212.882 188.884C212.86 188.833 212.829 188.787 212.79 188.748C212.751 188.709 212.705 188.678 212.654 188.657C212.603 188.635 212.548 188.624 212.493 188.624H133.387C133.331 188.624 133.277 188.635 133.226 188.657C133.175 188.678 133.128 188.709 133.089 188.748C133.05 188.787 133.019 188.833 132.998 188.884C132.977 188.935 132.966 188.99 132.966 189.045V191.169H126.654V189.045C126.654 188.99 126.643 188.935 126.622 188.884C126.601 188.833 126.57 188.787 126.531 188.748C126.492 188.709 126.445 188.678 126.394 188.657C126.343 188.635 126.289 188.624 126.233 188.624H116.135C116.079 188.624 116.025 188.635 115.974 188.657C115.923 188.678 115.876 188.709 115.837 188.748C115.798 188.787 115.767 188.833 115.746 188.884C115.725 188.935 115.714 188.99 115.714 189.045V191.169H109.402V189.045C109.402 188.99 109.391 188.935 109.37 188.884C109.349 188.833 109.318 188.787 109.279 188.748C109.24 188.709 109.194 188.678 109.143 188.657C109.091 188.635 109.037 188.624 108.981 188.624H98.8828C98.8276 188.624 98.7729 188.635 98.7218 188.657C98.6708 188.678 98.6244 188.709 98.5853 188.748C98.5462 188.787 98.5152 188.833 98.4941 188.884C98.4729 188.935 98.4621 188.99 98.4621 189.045V191.169H92.1504V189.045C92.1504 188.99 92.1395 188.935 92.1184 188.884C92.0972 188.833 92.0662 188.787 92.0271 188.748C91.9881 188.709 91.9417 188.678 91.8906 188.657C91.8396 188.635 91.7849 188.624 91.7296 188.624H81.6309C81.5757 188.624 81.521 188.635 81.4699 188.657C81.4189 188.678 81.3725 188.709 81.3334 188.748C81.2943 188.787 81.2633 188.833 81.2422 188.884C81.221 188.935 81.2102 188.99 81.2102 189.045V191.169H74.8985V189.045C74.8985 188.99 74.8876 188.935 74.8665 188.884C74.8453 188.833 74.8143 188.787 74.7753 188.748C74.7362 188.709 74.6898 188.678 74.6388 188.657C74.5877 188.635 74.533 188.624 74.4777 188.624H64.379C64.3238 188.624 64.2691 188.635 64.218 188.657C64.167 188.678 64.1206 188.709 64.0815 188.748C64.0424 188.787 64.0114 188.833 63.9903 188.884C63.9691 188.935 63.9583 188.99 63.9583 189.045V191.169H57.6466V189.045C57.6466 188.99 57.6357 188.935 57.6146 188.884C57.5934 188.833 57.5624 188.787 57.5233 188.748C57.4843 188.709 57.4379 188.678 57.3868 188.657C57.3358 188.635 57.2811 188.624 57.2258 188.624H47.1271C47.0719 188.624 47.0172 188.635 46.9661 188.657C46.9151 188.678 46.8687 188.709 46.8296 188.748C46.7905 188.787 46.7595 188.833 46.7384 188.884C46.7172 188.935 46.7064 188.99 46.7064 189.045V191.169H40.3947V189.045C40.3947 188.99 40.3838 188.935 40.3627 188.884C40.3415 188.833 40.3105 188.787 40.2715 188.748C40.2324 188.709 40.186 188.678 40.1349 188.657C40.0839 188.635 40.0292 188.624 39.9739 188.624H29.8752C29.82 188.624 29.7653 188.635 29.7142 188.657C29.6632 188.678 29.6168 188.709 29.5777 188.748C29.5386 188.787 29.5076 188.833 29.4865 188.884C29.4653 188.935 29.4545 188.99 29.4545 189.045V191.169H10.0987C7.42034 191.169 4.8517 192.233 2.95784 194.128C1.06397 196.022 2.55165e-06 198.592 0 201.271V205.84C7.65495e-06 208.519 1.06398 211.089 2.95784 212.983C4.85171 214.878 7.42034 215.942 10.0987 215.942H345.88C348.558 215.942 351.126 214.878 353.02 212.983C354.914 211.089 355.978 208.519 355.978 205.84V201.271C355.978 198.592 354.914 196.022 353.02 194.128C351.126 192.233 348.558 191.169 345.88 191.169Z" fill="#3F3D56"/>
    <path d="M78.4939 170.625C71.263 170.625 64.1945 168.479 58.1823 164.46C52.17 160.442 47.484 154.729 44.7169 148.046C41.9498 141.363 41.2258 134.009 42.6364 126.914C44.0471 119.819 47.5291 113.302 52.6421 108.187C57.7551 103.072 64.2695 99.5883 71.3614 98.1771C78.4533 96.7658 85.8043 97.4901 92.4847 100.258C99.1652 103.027 104.875 107.715 108.892 113.729C112.91 119.744 115.054 126.816 115.054 134.049C115.043 143.746 111.187 153.043 104.334 159.9C97.4796 166.757 88.1868 170.614 78.4939 170.625ZM78.4939 98.4368C71.4533 98.4368 64.5708 100.525 58.7168 104.439C52.8628 108.352 48.3001 113.914 45.6058 120.421C42.9115 126.928 42.2065 134.089 43.5801 140.997C44.9536 147.905 48.344 154.251 53.3224 159.231C58.3009 164.212 64.6438 167.604 71.5491 168.978C78.4544 170.352 85.6119 169.647 92.1166 166.951C98.6212 164.256 104.181 159.691 108.092 153.835C112.004 147.978 114.092 141.093 114.092 134.049C114.081 124.608 110.327 115.556 103.654 108.879C96.98 102.203 87.9317 98.4475 78.4939 98.4368Z" fill="#3F3D56"/>
    <path d="M404.647 15.6615H281.979V16.624H404.647V15.6615Z" fill="#3F3D56"/>
    <path d="M548 269.762H195.389V270.725H548V269.762Z" fill="#3F3D56"/>
    <path d="M215.353 314.038H92.685V315H215.353V314.038Z" fill="#3F3D56"/>
    <path d="M240.045 264.688H226.575V278.163H240.045V264.688Z" fill="#E7EB46"/>
    <path d="M248.223 270.463H231.867V254.101H248.223V270.463ZM232.578 269.752H247.512V254.812H232.578V269.752Z" fill="#3F3D56"/>
    <path d="M396.387 10.5875H382.917V24.0626H396.387V10.5875Z" fill="#E7EB46"/>
    <path d="M404.564 16.3626H388.209V0H404.564V16.3626ZM388.92 15.6511H403.853V0.711417H388.92V15.6511Z" fill="#3F3D56"/>
    <path d="M532.043 264.688H518.574V278.163H532.043V264.688Z" fill="#E7EB46"/>
    <path d="M540.221 270.463H523.865V254.101H540.221V270.463ZM524.576 269.752H539.51V254.812H524.576V269.752Z" fill="#3F3D56"/>
    <path d="M508.554 111.63H507.41V80.2711C507.41 77.8877 506.941 75.5275 506.029 73.3255C505.117 71.1235 503.781 69.1226 502.096 67.4373C500.411 65.7519 498.411 64.415 496.21 63.5029C494.009 62.5908 491.65 62.1213 489.267 62.1213H422.857C420.474 62.1213 418.115 62.5908 415.914 63.5029C413.713 64.415 411.713 65.7519 410.028 67.4373C408.343 69.1226 407.007 71.1235 406.095 73.3255C405.184 75.5275 404.714 77.8877 404.714 80.2711V252.31C404.714 254.693 405.184 257.053 406.095 259.255C407.007 261.457 408.343 263.458 410.028 265.144C411.713 266.829 413.713 268.166 415.914 269.078C418.115 269.99 420.474 270.459 422.857 270.459H489.267C491.65 270.459 494.009 269.99 496.21 269.078C498.411 268.166 500.411 266.829 502.096 265.143C503.781 263.458 505.117 261.457 506.029 259.255C506.941 257.053 507.41 254.693 507.41 252.31V133.952H508.554V111.63Z" fill="#3F3D56"/>
    <path d="M503.546 81.3379V253.126C503.547 256.72 502.12 260.168 499.58 262.711C497.039 265.253 493.593 266.682 490 266.682H423.268C419.675 266.682 416.229 265.253 413.689 262.711C411.148 260.168 409.721 256.72 409.722 253.126V81.3379C409.722 77.7438 411.15 74.297 413.69 71.7556C416.23 69.2142 419.676 67.7862 423.268 67.7859H431.364C430.966 68.7636 430.814 69.8243 430.922 70.8746C431.03 71.925 431.394 72.9326 431.983 73.8089C432.572 74.6851 433.367 75.403 434.299 75.8994C435.23 76.3958 436.269 76.6554 437.325 76.6553H475.371C476.426 76.6554 477.466 76.3958 478.397 75.8994C479.329 75.4031 480.124 74.6851 480.713 73.8089C481.302 72.9326 481.666 71.925 481.774 70.8746C481.882 69.8243 481.73 68.7636 481.331 67.7859H490C493.592 67.7862 497.038 69.2142 499.578 71.7556C502.119 74.297 503.546 77.7438 503.546 81.3379Z" fill="#E7EB46"/>
    <path d="M466.574 181.055H446.695V186.949H466.574V181.055Z" fill="#3F3D56"/>
    <path d="M490.606 135.172H422.662V137.697H490.606V135.172Z" fill="#3F3D56"/>
    <path d="M490.606 143.17H422.662V145.695H490.606V143.17Z" fill="#3F3D56"/>
    <path d="M490.606 151.168H422.662V153.693H490.606V151.168Z" fill="#3F3D56"/>
    <path d="M490.606 159.166H422.662V161.692H490.606V159.166Z" fill="#3F3D56"/>
    <path d="M490.606 167.164H422.662V169.69H490.606V167.164Z" fill="#3F3D56"/>
    <path d="M459.007 101.63H447.226V113.417H459.007V101.63Z" fill="#F2F2F2"/>
    <path d="M451.736 104.578V118.89H466.043V104.578H451.736ZM465.422 118.269H452.357V105.198H465.422V118.269Z" fill="#3F3D56"/>
    <path opacity="0.1" d="M503.546 234.78V253.125C503.547 256.72 502.12 260.168 499.58 262.711C497.039 265.253 493.593 266.682 490 266.682H423.268C419.675 266.682 416.229 265.253 413.689 262.711C411.148 260.168 409.721 256.72 409.722 253.125V160.624L465.942 205.058L466.905 205.818L477.363 214.082L478.339 214.856L503.546 234.78Z" fill="black"/>
    <path d="M450.862 261.115C462.516 261.115 471.964 251.663 471.964 240.004C471.964 228.344 462.516 218.892 450.862 218.892C439.207 218.892 429.759 228.344 429.759 240.004C429.759 251.663 439.207 261.115 450.862 261.115Z" fill="#F2F2F2"/>
    <path d="M154.019 315C145.742 315 137.65 312.544 130.768 307.944C123.885 303.343 118.521 296.804 115.353 289.154C112.186 281.503 111.357 273.085 112.972 264.963C114.586 256.841 118.572 249.381 124.425 243.525C130.279 237.67 137.736 233.682 145.854 232.067C153.973 230.451 162.387 231.28 170.035 234.449C177.682 237.618 184.219 242.985 188.817 249.87C193.416 256.755 195.87 264.85 195.87 273.131C195.858 284.232 191.445 294.874 183.599 302.723C175.753 310.572 165.115 314.987 154.019 315ZM154.019 232.225C145.932 232.225 138.026 234.624 131.302 239.119C124.578 243.614 119.337 250.002 116.242 257.477C113.147 264.952 112.338 273.177 113.915 281.112C115.493 289.047 119.387 296.335 125.106 302.056C130.824 307.777 138.11 311.673 146.042 313.252C153.974 314.83 162.195 314.02 169.667 310.924C177.138 307.828 183.524 302.585 188.017 295.858C192.51 289.131 194.908 281.222 194.908 273.131C194.896 262.286 190.584 251.888 182.919 244.219C175.253 236.551 164.86 232.237 154.019 232.225Z" fill="#3F3D56"/>
    <path d="M457.081 256.287C451.849 256.287 446.733 254.735 442.382 251.827C438.031 248.918 434.64 244.784 432.638 239.948C430.635 235.111 430.111 229.789 431.132 224.655C432.153 219.52 434.673 214.804 438.373 211.102C442.073 207.4 446.788 204.88 451.92 203.858C457.052 202.837 462.372 203.361 467.206 205.364C472.041 207.368 476.173 210.76 479.08 215.113C481.988 219.466 483.539 224.583 483.539 229.818C483.531 236.836 480.741 243.564 475.781 248.526C470.821 253.488 464.096 256.279 457.081 256.287ZM457.081 204.312C452.039 204.312 447.11 205.808 442.917 208.611C438.724 211.413 435.456 215.397 433.527 220.058C431.597 224.718 431.092 229.847 432.076 234.795C433.059 239.742 435.488 244.287 439.053 247.854C442.619 251.421 447.162 253.851 452.108 254.835C457.053 255.819 462.18 255.314 466.838 253.383C471.497 251.453 475.479 248.184 478.28 243.989C481.082 239.795 482.577 234.863 482.577 229.818C482.57 223.056 479.881 216.573 475.101 211.791C470.322 207.009 463.841 204.32 457.081 204.312Z" fill="#3F3D56"/>
    </g>
    <defs>
    <clipPath id="clip0">
    <rect width="548" height="315" fill="white"/>
    </clipPath>
    </defs>
    </svg>
