<svg width="29" height="29" viewBox="0 0 29 29" fill="none" xmlns="http://www.w3.org/2000/svg">
    <path d="M14.5 2.26562C21.2188 2.26562 26.7344 7.70737 26.7344 14.5C26.7344 21.2567 21.2623 26.7344 14.5 26.7344C7.74594 26.7344 2.26562 21.265 2.26562 14.5C2.26562 7.74827 7.73722 2.26562 14.5 2.26562ZM14.5 0.453125C6.74267 0.453125 0.453125 6.74494 0.453125 14.5C0.453125 22.2596 6.74267 28.5469 14.5 28.5469C22.2573 28.5469 28.5469 22.2596 28.5469 14.5C28.5469 6.74494 22.2573 0.453125 14.5 0.453125ZM12.4609 19.9375H13.1406V13.1406H12.4609C12.0856 13.1406 11.7812 12.8363 11.7812 12.4609V12.0078C11.7812 11.6325 12.0856 11.3281 12.4609 11.3281H15.1797C15.555 11.3281 15.8594 11.6325 15.8594 12.0078V19.9375H16.5391C16.9144 19.9375 17.2188 20.2418 17.2188 20.6172V21.0703C17.2188 21.4457 16.9144 21.75 16.5391 21.75H12.4609C12.0856 21.75 11.7812 21.4457 11.7812 21.0703V20.6172C11.7812 20.2418 12.0856 19.9375 12.4609 19.9375ZM14.5 6.34375C13.499 6.34375 12.6875 7.15524 12.6875 8.15625C12.6875 9.15726 13.499 9.96875 14.5 9.96875C15.501 9.96875 16.3125 9.15726 16.3125 8.15625C16.3125 7.15524 15.501 6.34375 14.5 6.34375Z" fill="white"/>
    </svg>
