<svg width="29" height="33" viewBox="0 0 29 33" fill="none" xmlns="http://www.w3.org/2000/svg">
    <g clip-path="url(#clip0)">
    <path d="M25.8929 12.3746H23.8214V9.37106C23.8214 4.24059 19.6786 0.0124579 14.5259 -0.000432727C9.37321 -0.0133234 5.17857 4.1568 5.17857 9.28083V12.3746H3.10714C1.39174 12.3746 0 13.7603 0 15.4683V29.9058C0 31.6139 1.39174 32.9996 3.10714 32.9996H25.8929C27.6083 32.9996 29 31.6139 29 29.9058V15.4683C29 13.7603 27.6083 12.3746 25.8929 12.3746ZM8.28571 9.28083C8.28571 5.87125 11.0757 3.09332 14.5 3.09332C17.9243 3.09332 20.7143 5.87125 20.7143 9.28083V12.3746H8.28571V9.28083ZM25.8929 29.9058H3.10714V15.4683H25.8929V29.9058Z" fill="#696969"/>
    </g>
    <defs>
    <clipPath id="clip0">
    <rect width="29" height="33" fill="white"/>
    </clipPath>
    </defs>
    </svg>
