<svg width="27" height="27" viewBox="0 0 27 27" fill="none" xmlns="http://www.w3.org/2000/svg">
<g clip-path="url(#clip0)">
<path d="M24.469 0.226015L0.84398 13.8526C-0.368911 14.5539 -0.247622 16.3416 1.04437 16.8743L8.43773 19.9328V25.3118C8.43773 26.9043 10.4311 27.5952 11.4278 26.3823L14.6287 22.4905L21.2944 25.2432C22.3016 25.6598 23.4407 25.0217 23.6041 23.9407L26.9791 1.94516C27.1953 0.537148 25.6819 -0.475352 24.469 0.226015ZM10.1252 25.3118V20.6289L12.9993 21.8155L10.1252 25.3118ZM21.9377 23.6823L11.0639 19.1893L21.5844 6.75453C21.8375 6.45922 21.4315 6.05844 21.1362 6.31156L7.67308 17.7866L1.68773 15.3186L25.3127 1.68676L21.9377 23.6823Z" fill="white"/>
</g>
<defs>
<clipPath id="clip0">
<rect width="27" height="27" fill="white"/>
</clipPath>
</defs>
</svg>
