<svg width="32" height="32" viewBox="0 0 32 32" fill="none" xmlns="http://www.w3.org/2000/svg">
    <path d="M26 28H20.75C20.3375 28 20 27.6625 20 27.25V24.75C20 24.3375 20.3375 24 20.75 24H26C27.1063 24 28 23.1063 28 22V10C28 8.89375 27.1063 8 26 8H20.75C20.3375 8 20 7.6625 20 7.25V4.75C20 4.3375 20.3375 4 20.75 4H26C29.3125 4 32 6.6875 32 10V22C32 25.3125 29.3125 28 26 28ZM23.0625 15.4375L12.5625 4.9375C11.625 4 10 4.65625 10 6V12H1.5C0.66875 12 0 12.6687 0 13.5V19.5C0 20.3312 0.66875 21 1.5 21H10V27C10 28.3438 11.625 29 12.5625 28.0625L23.0625 17.5625C23.6437 16.975 23.6437 16.025 23.0625 15.4375Z" fill="#432740"/>
    </svg>
