<svg width="29" height="23" viewBox="0 0 29 23" fill="none" xmlns="http://www.w3.org/2000/svg">
    <path d="M29 6.0625V16.9375C29 18.3796 28.4271 19.7627 27.4074 20.7824C26.3877 21.8021 25.0046 22.375 23.5625 22.375H18.8047C18.6244 22.375 18.4515 22.3034 18.3241 22.1759C18.1966 22.0485 18.125 21.8756 18.125 21.6953V19.4297C18.125 19.2494 18.1966 19.0765 18.3241 18.9491C18.4515 18.8216 18.6244 18.75 18.8047 18.75H23.5625C24.0432 18.75 24.5042 18.559 24.8441 18.2191C25.184 17.8792 25.375 17.4182 25.375 16.9375V6.0625C25.375 5.5818 25.184 5.12078 24.8441 4.78087C24.5042 4.44096 24.0432 4.25 23.5625 4.25H18.8047C18.6244 4.25 18.4515 4.17839 18.3241 4.05092C18.1966 3.92346 18.125 3.75058 18.125 3.57031V1.30469C18.125 1.12442 18.1966 0.951542 18.3241 0.824076C18.4515 0.69661 18.6244 0.625 18.8047 0.625H23.5625C25.0046 0.625 26.3877 1.19788 27.4074 2.21761C28.4271 3.23734 29 4.62039 29 6.0625Z" fill="#88E4F0"/>
    <path d="M20.9004 12.4629L11.3848 21.9785C10.5352 22.8281 9.0625 22.2334 9.0625 21.0156V15.5781H1.35938C1.18074 15.5785 1.00377 15.5437 0.838639 15.4755C0.67351 15.4074 0.523475 15.3073 0.397156 15.1809C0.270837 15.0546 0.170724 14.9046 0.102567 14.7395C0.0344113 14.5743 -0.000444017 14.3974 4.26979e-06 14.2187V8.78122C-0.000444017 8.60257 0.0344113 8.42561 0.102567 8.26048C0.170724 8.09535 0.270837 7.94531 0.397156 7.81899C0.523475 7.69267 0.67351 7.59256 0.838639 7.5244C1.00377 7.45625 1.18074 7.42139 1.35938 7.42184H9.0625V1.98434C9.0625 0.766568 10.5352 0.171842 11.3848 1.02145L20.9004 10.5371C21.1536 10.7936 21.2956 11.1395 21.2956 11.5C21.2956 11.8604 21.1536 12.2063 20.9004 12.4629Z" fill="white"/>
    </svg>
