<svg width="25" height="24" viewBox="0 0 25 24" fill="none" xmlns="http://www.w3.org/2000/svg">
    <g clip-path="url(#clip0)">
    <path d="M12.503 0H12.497C5.8805 0 0.5 5.382 0.5 12C0.5 14.625 1.346 17.058 2.7845 19.0335L1.289 23.4915L5.9015 22.017C7.799 23.274 10.0625 24 12.503 24C19.1195 24 24.5 18.6165 24.5 12C24.5 5.3835 19.1195 0 12.503 0Z" fill="#27842A"/>
    <path d="M19.4853 16.9455C19.1958 17.763 18.0468 18.441 17.1303 18.639C16.5033 18.7725 15.6843 18.879 12.9273 17.736C9.40083 16.275 7.12983 12.6915 6.95283 12.459C6.78333 12.2265 5.52783 10.5615 5.52783 8.83952C5.52783 7.11753 6.40233 6.27903 6.75483 5.91903C7.04433 5.62353 7.52283 5.48853 7.98183 5.48853C8.13033 5.48853 8.26383 5.49603 8.38383 5.50203C8.73633 5.51703 8.91333 5.53803 9.14583 6.09453C9.43533 6.79203 10.1403 8.51402 10.2243 8.69103C10.3098 8.86802 10.3953 9.10803 10.2753 9.34052C10.1628 9.58052 10.0638 9.68702 9.88683 9.89102C9.70983 10.095 9.54183 10.251 9.36483 10.47C9.20283 10.6605 9.01983 10.8645 9.22383 11.217C9.42783 11.562 10.1328 12.7125 11.1708 13.6365C12.5103 14.829 13.5963 15.21 13.9848 15.372C14.2743 15.492 14.6193 15.4635 14.8308 15.2385C15.0993 14.949 15.4308 14.469 15.7683 13.9965C16.0083 13.6575 16.3113 13.6155 16.6293 13.7355C16.9533 13.848 18.6678 14.6955 19.0203 14.871C19.3728 15.048 19.6053 15.132 19.6908 15.2805C19.7748 15.429 19.7748 16.1265 19.4853 16.9455Z" fill="#FAFAFA"/>
    </g>
    <defs>
    <clipPath id="clip0">
    <rect width="24" height="24" fill="white" transform="translate(0.5)"/>
    </clipPath>
    </defs>
    </svg>
